<svg xmlns="http://www.w3.org/2000/svg" viewBox="0 0 354.51 507.7"><defs><style>.cls-1,.cls-3{fill:#fff;}.cls-1,.cls-2{stroke:#fff;stroke-miterlimit:10;}.cls-1{stroke-width:6px;}.cls-2{stroke-width:5px;}</style></defs><g id="Camada_2" data-name="Camada 2"><g id="Camada_2-2" data-name="Camada 2"><rect class="cls-1" x="3" y="3" width="348.51" height="501.7" rx="34.85"/><path class="cls-2" d="M37.85,3H316.66a34.85,34.85,0,0,1,34.85,34.85V410.92a0,0,0,0,1,0,0H3a0,0,0,0,1,0,0V37.85A34.85,34.85,0,0,1,37.85,3Z"/><path class="cls-3" d="M214.09,258.87l5.4-9.83a4,4,0,0,0-3.56-5.91l-23.61.35a4,4,0,0,0-3.43,2.06l-42.87,78a4,4,0,0,0,3.35,5.9l23,.8a4,4,0,0,0,3.64-2.06l9.66-17.6a4,4,0,0,1,3.53-2.07l33.7.27a4,4,0,0,1,3.46,5.91l-28.75,52.34a4,4,0,0,1-3.48,2.07l-120,.44a4,4,0,0,1-3.51-5.91L162.18,197A4,4,0,0,1,165.7,195L285,195.8a4,4,0,0,1,3.46,5.91l-33.25,60.53a4,4,0,0,1-3.44,2.07l-34.1.46A4,4,0,0,1,214.09,258.87Z"/><path class="cls-3" d="M162.71,39.73,47.16,250.06a4,4,0,0,0,3.51,5.9l53.22-.19a4,4,0,0,0,3.44-2l46-79.79a4,4,0,0,1,3.46-2l81.17,0a4,4,0,0,0,3.52-2.12L308.68,43.42a4,4,0,0,0-3.52-5.86l-139,.1A4,4,0,0,0,162.71,39.73ZM185,151.26h-11.8a4,4,0,0,1-3.51-5.88l43.14-79.53a4,4,0,0,1,3.54-2.09l12.3.11a4,4,0,0,1,3.46,5.9L188.45,149.2A4,4,0,0,1,185,151.26Z"/><path d="M131,446.05v8.64c0,9.07-3.14,18-18.59,18h-5v20.86H93.73V428.07h18.68C127.86,428.07,131,437,131,446.05Zm-18.68,15.79c3.05,0,5-1.22,5-4.8V443.78c0-3.58-1.92-4.8-5-4.8h-4.89v22.86Z"/><path d="M196,445.44v2.88c0,6.28-2.27,13.52-9.25,14.13v.44c7,1.14,8.29,8,8.29,14.49v16.15h-13.7V472.84c0-3.58-1.92-5.41-5-5.41h-3.92v26.1H158.75V428.07h18.68C192.88,428.07,196,437,196,445.44Zm-18.68,11.17c3.06,0,5-1.22,5-4.8v-8c0-3.58-1.92-4.8-5-4.8h-4.88v17.63Z"/><path d="M242.1,427.19c15.45,0,18.68,8.91,18.68,18v31.25c0,9.08-3.23,18-18.68,18s-18.67-8.9-18.67-18V445.17C223.43,436.1,226.66,427.19,242.1,427.19ZM242,483.58c3,0,5-1.22,5-4.8V442.9c0-3.57-1.92-4.8-5-4.8s-4.8,1.23-4.8,4.8v35.88C237.22,482.36,239.05,483.58,242,483.58Z"/></g></g></svg>